<svg fill="currentColor" viewBox="0 0 24 24" xmlns="http://www.w3.org/2000/svg">
  <g id="SVGRepo_iconCarrier" transform="matrix(1, 0, 0, 1, -1.861687, 1.028827)">
    <g id="Dark">
      <path d="M 12.741 20.917 C 12.274 20.917 11.808 20.882 11.346 20.812 C 4.396 19.713 1.241 11.502 5.669 6.032 C 6.765 4.677 8.227 3.664 9.881 3.112 C 10.305 2.968 10.774 3.077 11.091 3.393 C 11.434 3.728 11.56 4.228 11.416 4.686 C 11.149 5.553 11.03 6.459 11.063 7.366 C 11.216 10.259 12.873 12.86 15.429 14.223 C 16.561 14.865 17.839 15.207 19.14 15.216 C 20.096 15.229 20.679 16.272 20.19 17.094 C 20.172 17.123 20.154 17.151 20.134 17.179 C 18.407 19.533 15.661 20.922 12.741 20.917 Z" style="fill: currentColor;"></path>
    </g>
  </g>
  <g id="group-1" transform="matrix(1, 0, 0, 1, -0.792089, 0.501354)">
    <g id="Light">
      <g transform="matrix(1, 0, 0, 1, 1.79649, -1.272976)">
        <path d="M12,18.09A6.09,6.09,0,1,1,18.09,12,6.1,6.1,0,0,1,12,18.09ZM12,6.91A5.09,5.09,0,1,0,17.09,12,5.1,5.1,0,0,0,12,6.91Z" style="fill: currentColor;"></path>
        <path d="M11.5,2.568v1.6a.5.5,0,1,0,1,0v-1.6a.5.5,0,1,0-1,0Z" style="fill: currentColor;"></path>
        <path d="M21.432,11.5h-1.6a.5.5,0,0,0,0,1h1.6a.5.5,0,1,0,0-1Z" style="fill: currentColor;"></path>
        <path d="M18.316,4.977l-.992.992-.141.141a.514.514,0,0,0-.146.353.508.508,0,0,0,.146.354.5.5,0,0,0,.354.146.515.515,0,0,0,.353-.146l.992-.992.141-.141a.515.515,0,0,0,.147-.354.508.508,0,0,0-.147-.353.5.5,0,0,0-.353-.147.522.522,0,0,0-.354.147Z" style="fill: currentColor;"></path>
        <path d="M19.023,18.316l-.992-.992-.141-.141a.514.514,0,0,0-.353-.146.508.508,0,0,0-.354.146.5.5,0,0,0-.146.354.515.515,0,0,0,.146.353l.992.992.141.141a.515.515,0,0,0,.354.147.508.508,0,0,0,.353-.147.5.5,0,0,0,.147-.353.522.522,0,0,0-.147-.354Z" style="fill: currentColor;"></path>
        <path d="M4.977,5.684l.992.992.141.141a.514.514,0,0,0,.353.146.508.508,0,0,0,.354-.146.5.5,0,0,0,.146-.354.515.515,0,0,0-.146-.353l-.992-.992-.141-.141A.515.515,0,0,0,5.33,4.83a.508.508,0,0,0-.353.147.5.5,0,0,0-.147.353.522.522,0,0,0,.147.354Z" style="fill: currentColor;"></path>
      </g>
    </g>
  </g>
</svg>
</svg>