<svg fill="currentColor" viewBox="0 0 24 24" xmlns="http://www.w3.org/2000/svg">
  <g id="SVGRepo_bgCarrier" stroke-width="0"></g>
  <g id="SVGRepo_tracerCarrier" stroke-linecap="round" stroke-linejoin="round"></g>
  <g id="SVGRepo_iconCarrier">
    <g id="Dark">
      <path d="M 12.741 20.917 C 12.274 20.917 11.808 20.882 11.346 20.812 C 4.396 19.713 1.241 11.502 5.669 6.032 C 6.765 4.677 8.227 3.664 9.881 3.112 C 10.305 2.968 10.774 3.077 11.091 3.393 C 11.434 3.728 11.56 4.228 11.416 4.686 C 11.149 5.553 11.03 6.459 11.063 7.366 C 11.216 10.259 12.873 12.86 15.429 14.223 C 16.561 14.865 17.839 15.207 19.14 15.216 C 20.096 15.229 20.679 16.272 20.19 17.094 C 20.172 17.123 20.154 17.151 20.134 17.179 C 18.407 19.533 15.661 20.922 12.741 20.917 Z"></path>
    </g>
  </g>
</svg>